<svg width="105" height="23" viewBox="0 0 105 23" fill="none" xmlns="http://www.w3.org/2000/svg">
<path d="M4.15 14.14C4.15 15 4.37 15.79 4.81 16.51C5.27 17.21 5.87 17.78 6.61 18.22C7.35 18.64 8.18 18.85 9.1 18.85C10.06 18.85 10.92 18.64 11.68 18.22C12.44 17.78 13.04 17.21 13.48 16.51C13.92 15.79 14.14 15 14.14 14.14V0.159999H17.59V14.23C17.59 15.81 17.21 17.21 16.45 18.43C15.69 19.63 14.67 20.57 13.39 21.25C12.11 21.91 10.68 22.24 9.1 22.24C7.54 22.24 6.12 21.91 4.84 21.25C3.56 20.57 2.54 19.63 1.78 18.43C1.04 17.21 0.67 15.81 0.67 14.23V0.159999H4.15V14.14ZM25.5763 9.31L25.8763 12.04L25.7563 11.68C26.1963 10.8 26.8463 10.1 27.7063 9.58C28.5863 9.04 29.6263 8.77 30.8263 8.77C32.0263 8.77 33.0163 9.12 33.7963 9.82C34.5763 10.52 34.9763 11.44 34.9963 12.58V22H31.6363V13.78C31.6163 13.14 31.4363 12.63 31.0963 12.25C30.7563 11.85 30.2163 11.64 29.4763 11.62C28.7963 11.62 28.1863 11.83 27.6463 12.25C27.1063 12.65 26.6763 13.21 26.3563 13.93C26.0563 14.63 25.9063 15.44 25.9063 16.36V22H22.5463V9.31H25.5763ZM39.6264 9.31H42.9864V22H39.6264V9.31ZM39.4764 4.78C39.4764 4.26 39.6764 3.83 40.0764 3.49C40.4964 3.15 40.9464 2.98 41.4264 2.98C41.9064 2.98 42.3364 3.15 42.7164 3.49C43.1164 3.83 43.3164 4.26 43.3164 4.78C43.3164 5.3 43.1164 5.73 42.7164 6.07C42.3364 6.39 41.9064 6.55 41.4264 6.55C40.9464 6.55 40.4964 6.38 40.0764 6.04C39.6764 5.7 39.4764 5.28 39.4764 4.78ZM53.0252 22.33L45.7352 9.31H49.7252L54.3152 18.85L52.2452 18.76L56.3852 9.31H60.1352L53.1752 22.33H53.0252Z" fill="#FE5E02"/>
<path d="M61.8381 15.52C61.8381 14.24 62.1381 13.09 62.7381 12.07C63.3381 11.03 64.1781 10.22 65.2581 9.64C66.3581 9.04 67.5981 8.74 68.9781 8.74C70.3981 8.74 71.6281 9.04 72.6681 9.64C73.7281 10.22 74.5481 11.03 75.1281 12.07C75.7081 13.09 75.9981 14.24 75.9981 15.52C75.9981 16.8 75.7081 17.96 75.1281 19C74.5481 20.02 73.7281 20.83 72.6681 21.43C71.6281 22.03 70.3881 22.33 68.9481 22.33C67.5881 22.33 66.3681 22.06 65.2881 21.52C64.2081 20.96 63.3581 20.17 62.7381 19.15C62.1381 18.13 61.8381 16.92 61.8381 15.52ZM65.2281 15.55C65.2281 16.29 65.3881 16.97 65.7081 17.59C66.0281 18.19 66.4681 18.67 67.0281 19.03C67.5881 19.39 68.2081 19.57 68.8881 19.57C69.6281 19.57 70.2681 19.39 70.8081 19.03C71.3681 18.67 71.7981 18.19 72.0981 17.59C72.4181 16.97 72.5781 16.29 72.5781 15.55C72.5781 14.79 72.4181 14.11 72.0981 13.51C71.7981 12.89 71.3681 12.4 70.8081 12.04C70.2681 11.68 69.6281 11.5 68.8881 11.5C68.1881 11.5 67.5581 11.69 66.9981 12.07C66.4581 12.43 66.0281 12.91 65.7081 13.51C65.3881 14.11 65.2281 14.79 65.2281 15.55ZM82.5588 9.31L82.8588 12.91L82.7388 12.4C83.0988 11.64 83.5888 10.99 84.2088 10.45C84.8488 9.89 85.4988 9.47 86.1588 9.19C86.8188 8.89 87.3588 8.74 87.7788 8.74L87.6288 12.1C86.6688 12.02 85.8288 12.2 85.1088 12.64C84.4088 13.06 83.8588 13.62 83.4588 14.32C83.0788 15.02 82.8888 15.76 82.8888 16.54V22H79.5288V9.31H82.5588ZM96.2066 22.33C95.0066 22.33 93.9166 22.08 92.9366 21.58C91.9766 21.08 91.2166 20.34 90.6566 19.36C90.0966 18.36 89.8166 17.13 89.8166 15.67C89.8166 14.23 90.1066 13 90.6866 11.98C91.2866 10.94 92.0666 10.14 93.0266 9.58C94.0066 9.02 95.0666 8.74 96.2066 8.74C97.4266 8.74 98.4066 8.98 99.1466 9.46C99.9066 9.94 100.497 10.51 100.917 11.17L100.737 11.65L101.067 9.31H104.157V22H100.797V18.91L101.127 19.72C101.047 19.84 100.887 20.04 100.647 20.32C100.407 20.58 100.077 20.87 99.6566 21.19C99.2366 21.51 98.7366 21.78 98.1566 22C97.5966 22.22 96.9466 22.33 96.2066 22.33ZM97.1366 19.57C97.7366 19.57 98.2766 19.46 98.7566 19.24C99.2566 19.02 99.6766 18.71 100.017 18.31C100.377 17.91 100.637 17.43 100.797 16.87V14.11C100.637 13.59 100.377 13.14 100.017 12.76C99.6566 12.36 99.2166 12.05 98.6966 11.83C98.1966 11.61 97.6366 11.5 97.0166 11.5C96.3366 11.5 95.7066 11.67 95.1266 12.01C94.5466 12.35 94.0766 12.82 93.7166 13.42C93.3766 14.02 93.2066 14.71 93.2066 15.49C93.2066 16.25 93.3866 16.94 93.7466 17.56C94.1066 18.18 94.5866 18.67 95.1866 19.03C95.7866 19.39 96.4366 19.57 97.1366 19.57Z" fill="#005161"/>
</svg>
